<mxfile host="app.diagrams.net" modified="2021-10-29T04:10:47.347Z" agent="5.0 (Macintosh; Intel Mac OS X 10_15_7) AppleWebKit/605.1.15 (KHTML, like Gecko) Version/14.1.1 Safari/605.1.15" etag="AKsPMyVTiQOnijvZ91mp" version="15.5.9" type="github">
  <diagram id="R2lEEEUBdFMjLlhIrx00" name="Page-1">
    <mxGraphModel dx="818" dy="445" grid="1" gridSize="10" guides="1" tooltips="1" connect="1" arrows="1" fold="1" page="1" pageScale="1" pageWidth="850" pageHeight="1100" math="0" shadow="0" extFonts="Permanent Marker^https://fonts.googleapis.com/css?family=Permanent+Marker">
      <root>
        <mxCell id="0" />
        <mxCell id="1" parent="0" />
        <mxCell id="CS2VUn_H6PAiN5lwcOep-1" value="component1" style="rounded=0;whiteSpace=wrap;html=1;" vertex="1" parent="1">
          <mxGeometry x="300" y="420" width="80" height="70" as="geometry" />
        </mxCell>
        <mxCell id="CS2VUn_H6PAiN5lwcOep-7" value="component2" style="rounded=0;whiteSpace=wrap;html=1;" vertex="1" parent="1">
          <mxGeometry x="410" y="420" width="80" height="70" as="geometry" />
        </mxCell>
        <mxCell id="CS2VUn_H6PAiN5lwcOep-8" value="component3" style="rounded=0;whiteSpace=wrap;html=1;" vertex="1" parent="1">
          <mxGeometry x="520" y="420" width="80" height="70" as="geometry" />
        </mxCell>
        <mxCell id="CS2VUn_H6PAiN5lwcOep-9" value="component4" style="rounded=0;whiteSpace=wrap;html=1;" vertex="1" parent="1">
          <mxGeometry x="630" y="420" width="80" height="70" as="geometry" />
        </mxCell>
        <mxCell id="CS2VUn_H6PAiN5lwcOep-10" value="group1" style="rounded=0;whiteSpace=wrap;html=1;" vertex="1" parent="1">
          <mxGeometry x="410" y="270" width="80" height="70" as="geometry" />
        </mxCell>
        <mxCell id="CS2VUn_H6PAiN5lwcOep-11" value="" style="endArrow=none;html=1;rounded=0;entryX=0.5;entryY=1;entryDx=0;entryDy=0;exitX=0.5;exitY=0;exitDx=0;exitDy=0;" edge="1" parent="1" source="CS2VUn_H6PAiN5lwcOep-1" target="CS2VUn_H6PAiN5lwcOep-10">
          <mxGeometry width="50" height="50" relative="1" as="geometry">
            <mxPoint x="460" y="410" as="sourcePoint" />
            <mxPoint x="510" y="360" as="targetPoint" />
          </mxGeometry>
        </mxCell>
        <mxCell id="CS2VUn_H6PAiN5lwcOep-12" value="" style="endArrow=none;html=1;rounded=0;exitX=0.5;exitY=0;exitDx=0;exitDy=0;" edge="1" parent="1" source="CS2VUn_H6PAiN5lwcOep-7">
          <mxGeometry width="50" height="50" relative="1" as="geometry">
            <mxPoint x="350" y="390" as="sourcePoint" />
            <mxPoint x="450" y="340" as="targetPoint" />
          </mxGeometry>
        </mxCell>
        <mxCell id="CS2VUn_H6PAiN5lwcOep-13" value="" style="endArrow=none;html=1;rounded=0;exitX=0.5;exitY=0;exitDx=0;exitDy=0;entryX=0.5;entryY=1;entryDx=0;entryDy=0;" edge="1" parent="1" source="CS2VUn_H6PAiN5lwcOep-8" target="CS2VUn_H6PAiN5lwcOep-10">
          <mxGeometry width="50" height="50" relative="1" as="geometry">
            <mxPoint x="460" y="390" as="sourcePoint" />
            <mxPoint x="460" y="350" as="targetPoint" />
          </mxGeometry>
        </mxCell>
        <mxCell id="CS2VUn_H6PAiN5lwcOep-14" value="group2" style="rounded=0;whiteSpace=wrap;html=1;" vertex="1" parent="1">
          <mxGeometry x="410" y="550" width="80" height="70" as="geometry" />
        </mxCell>
        <mxCell id="CS2VUn_H6PAiN5lwcOep-17" value="system1" style="rounded=1;whiteSpace=wrap;html=1;" vertex="1" parent="1">
          <mxGeometry x="390" y="150" width="120" height="60" as="geometry" />
        </mxCell>
        <mxCell id="CS2VUn_H6PAiN5lwcOep-20" value="event system" style="rounded=1;whiteSpace=wrap;html=1;" vertex="1" parent="1">
          <mxGeometry x="180" y="275" width="120" height="60" as="geometry" />
        </mxCell>
        <mxCell id="CS2VUn_H6PAiN5lwcOep-22" value="" style="endArrow=none;html=1;rounded=0;entryX=0;entryY=0.5;entryDx=0;entryDy=0;exitX=0.5;exitY=0;exitDx=0;exitDy=0;" edge="1" parent="1" source="CS2VUn_H6PAiN5lwcOep-20" target="CS2VUn_H6PAiN5lwcOep-17">
          <mxGeometry width="50" height="50" relative="1" as="geometry">
            <mxPoint x="340" y="300" as="sourcePoint" />
            <mxPoint x="400" y="230" as="targetPoint" />
            <Array as="points">
              <mxPoint x="240" y="180" />
            </Array>
          </mxGeometry>
        </mxCell>
        <mxCell id="CS2VUn_H6PAiN5lwcOep-23" value="raise event with group" style="edgeLabel;html=1;align=center;verticalAlign=middle;resizable=0;points=[];" vertex="1" connectable="0" parent="CS2VUn_H6PAiN5lwcOep-22">
          <mxGeometry x="-0.1929" y="-2" relative="1" as="geometry">
            <mxPoint x="48" y="-22" as="offset" />
          </mxGeometry>
        </mxCell>
        <mxCell id="CS2VUn_H6PAiN5lwcOep-24" value="" style="endArrow=classic;html=1;rounded=0;entryX=0;entryY=0.5;entryDx=0;entryDy=0;exitX=1;exitY=0.5;exitDx=0;exitDy=0;" edge="1" parent="1" source="CS2VUn_H6PAiN5lwcOep-20" target="CS2VUn_H6PAiN5lwcOep-10">
          <mxGeometry width="50" height="50" relative="1" as="geometry">
            <mxPoint x="330" y="305" as="sourcePoint" />
            <mxPoint x="360" y="270" as="targetPoint" />
          </mxGeometry>
        </mxCell>
        <mxCell id="CS2VUn_H6PAiN5lwcOep-25" value="dependency" style="edgeLabel;html=1;align=center;verticalAlign=middle;resizable=0;points=[];" vertex="1" connectable="0" parent="CS2VUn_H6PAiN5lwcOep-24">
          <mxGeometry x="-0.2506" y="-2" relative="1" as="geometry">
            <mxPoint x="9" y="13" as="offset" />
          </mxGeometry>
        </mxCell>
        <mxCell id="CS2VUn_H6PAiN5lwcOep-26" value="event with group" style="edgeLabel;html=1;align=center;verticalAlign=middle;resizable=0;points=[];" vertex="1" connectable="0" parent="CS2VUn_H6PAiN5lwcOep-24">
          <mxGeometry x="-0.0545" y="-2" relative="1" as="geometry">
            <mxPoint x="-2" y="-17" as="offset" />
          </mxGeometry>
        </mxCell>
        <mxCell id="CS2VUn_H6PAiN5lwcOep-27" value="system x" style="rounded=1;whiteSpace=wrap;html=1;" vertex="1" parent="1">
          <mxGeometry x="80" y="425" width="120" height="60" as="geometry" />
        </mxCell>
        <mxCell id="CS2VUn_H6PAiN5lwcOep-28" value="" style="endArrow=none;html=1;rounded=0;entryX=0.5;entryY=1;entryDx=0;entryDy=0;exitX=0.5;exitY=0;exitDx=0;exitDy=0;" edge="1" parent="1" source="CS2VUn_H6PAiN5lwcOep-14">
          <mxGeometry width="50" height="50" relative="1" as="geometry">
            <mxPoint x="340" y="570" as="sourcePoint" />
            <mxPoint x="450" y="490" as="targetPoint" />
          </mxGeometry>
        </mxCell>
        <mxCell id="CS2VUn_H6PAiN5lwcOep-29" value="" style="endArrow=none;html=1;rounded=0;entryX=0.5;entryY=1;entryDx=0;entryDy=0;exitX=0;exitY=0.5;exitDx=0;exitDy=0;" edge="1" parent="1" source="CS2VUn_H6PAiN5lwcOep-14" target="CS2VUn_H6PAiN5lwcOep-27">
          <mxGeometry width="50" height="50" relative="1" as="geometry">
            <mxPoint x="220" y="590" as="sourcePoint" />
            <mxPoint x="220" y="530" as="targetPoint" />
            <Array as="points">
              <mxPoint x="140" y="585" />
            </Array>
          </mxGeometry>
        </mxCell>
        <mxCell id="CS2VUn_H6PAiN5lwcOep-30" value="" style="endArrow=none;html=1;rounded=0;entryX=0.5;entryY=0;entryDx=0;entryDy=0;exitX=0;exitY=0.5;exitDx=0;exitDy=0;" edge="1" parent="1" source="CS2VUn_H6PAiN5lwcOep-20" target="CS2VUn_H6PAiN5lwcOep-27">
          <mxGeometry width="50" height="50" relative="1" as="geometry">
            <mxPoint x="420" y="595" as="sourcePoint" />
            <mxPoint x="190" y="495" as="targetPoint" />
            <Array as="points">
              <mxPoint x="140" y="305" />
            </Array>
          </mxGeometry>
        </mxCell>
      </root>
    </mxGraphModel>
  </diagram>
</mxfile>
